# xmcd CD database file generated by OrangeCD 6.0
#
# Track frame offsets:
#	150
#	11105
#	24415
#	36552
#	50761
#	63239
#	76908
#	90358
#	101296
#	113119
#	124134
#	134446
#	145893
#	155782
#	168112
#
# Disc length: 2400 seconds
#
# Revision: 1
# Processed by: cddbd v1.5.1PL2 Copyright (c) Steve Scherf et al.
# Submitted via: OrangeCD 6.0
#
DISCID=c4095e0f
DTITLE=Jimmy Witherspoon - Goin' Around In Circles
DYEAR=1950
DGENRE=Blues
TTITLE0=I'm Just A Lady's Man
TTITLE1=Ther Ain't Nothing Better
TTITLE2=Love Me Baby
TTITLE3=Love And Friendship
TTITLE4=Good Jumping AKA
TTITLE5=I'm Just A Country Boy
TTITLE6=Slow Your Speed
TTITLE7=Geneva Blues AKA Evel Woman
TTITLE8=I'm Just Wandering (Part 1)
TTITLE9=I'm Just Wandering (Part 2)
TTITLE10=Baby, Baby
TTITLE11=Sweet Lovin' Baby
TTITLE12=The Doctor Knows His Business AKA Doctor Blues
TTITLE13=Rain, Rain, Rain
TTITLE14=Thelma Lee Blues
EXTD=
EXTT0=
EXTT1=
EXTT2=
EXTT3=
EXTT4=
EXTT5=
EXTT6=
EXTT7=
EXTT8=
EXTT9=
EXTT10=
EXTT11=
EXTT12=
EXTT13=
EXTT14=
PLAYORDER=
